<?xml version="1.0" ?><svg viewBox="0 0 32 32" xmlns="http://www.w3.org/2000/svg"><defs><style>.cls-1{fill:none;stroke:#000;stroke-linejoin:bevel;stroke-width:2px;}</style></defs><title/><g id="Hospital"><rect class="cls-1" height="13" width="26" x="3" y="16"/><rect class="cls-1" height="6" width="4" x="14" y="23"/><line class="cls-1" x1="7" x2="7" y1="20" y2="22"/><line class="cls-1" x1="11" x2="11" y1="20" y2="22"/><line class="cls-1" x1="7" x2="7" y1="23" y2="25"/><line class="cls-1" x1="11" x2="11" y1="23" y2="25"/><line class="cls-1" x1="21" x2="21" y1="20" y2="22"/><line class="cls-1" x1="25" x2="25" y1="20" y2="22"/><line class="cls-1" x1="21" x2="21" y1="23" y2="25"/><line class="cls-1" x1="25" x2="25" y1="23" y2="25"/><line class="cls-1" x1="16" x2="16" y1="6" y2="11"/><line class="cls-1" x1="13.5" x2="18.5" y1="8.5" y2="8.5"/><polygon class="cls-1" points="25 9 25 16 7 16 7 9 11 9 11 13 21 13 21 9 25 9"/><rect class="cls-1" height="9" width="10" x="11" y="4"/></g></svg>