<?xml version="1.0" ?><svg id="Icons" style="enable-background:new 0 0 32 32;" version="1.1" viewBox="0 0 32 32" xml:space="preserve" xmlns="http://www.w3.org/2000/svg" xmlns:xlink="http://www.w3.org/1999/xlink"><style type="text/css">
	.st0{fill:none;stroke:#000000;stroke-width:2;stroke-linecap:round;stroke-linejoin:round;stroke-miterlimit:10;}
	.st1{fill:none;stroke:#000000;stroke-width:2;stroke-linejoin:round;stroke-miterlimit:10;}
</style><path class="st0" d="M11.4,29h9.1c3.8-1.7,6.4-5.6,6.4-10v-1H5v1C5,23.4,7.6,27.3,11.4,29z"/><path class="st0" d="M26,18c0-1.7-1.3-3-3-3c0-1.7-1.3-3-3-3c-0.5,0-1,0.2-1.5,0.4C18,11.6,17.1,11,16,11s-2,0.6-2.5,1.4  C13,12.2,12.5,12,12,12c-1.7,0-3,1.3-3,3c-1.7,0-3,1.3-3,3"/><path class="st0" d="M25,4.1L12.7,5c-0.6-1.1-2-2-3.7-2C6.8,3,5,4.3,5,6s1.8,3,4,3c1.7,0,3.2-0.8,3.7-2L25,7.9c1.1,0.1,2-0.8,2-1.9  S26.1,4.1,25,4.1z"/></svg>